<mxfile host="app.diagrams.net" modified="2021-01-20T09:56:14.920Z" agent="5.0 (Windows NT 10.0; Win64; x64) AppleWebKit/537.36 (KHTML, like Gecko) Chrome/87.0.4280.141 Safari/537.36" etag="VD0qwv3i3Uoi2Oo1j0r0" version="13.6.6" type="github">
  <diagram id="zcr2dK4i8cg4_5gOnnsY" name="Page-1">
    <mxGraphModel dx="1422" dy="882" grid="1" gridSize="10" guides="1" tooltips="1" connect="1" arrows="1" fold="1" page="1" pageScale="1" pageWidth="827" pageHeight="1169" math="0" shadow="0">
      <root>
        <mxCell id="0" />
        <mxCell id="1" parent="0" />
        <mxCell id="hsD-AiFMK86hT57HMmQB-11" value="" style="edgeStyle=orthogonalEdgeStyle;rounded=0;orthogonalLoop=1;jettySize=auto;html=1;" edge="1" parent="1" source="hsD-AiFMK86hT57HMmQB-1" target="hsD-AiFMK86hT57HMmQB-10">
          <mxGeometry relative="1" as="geometry" />
        </mxCell>
        <mxCell id="hsD-AiFMK86hT57HMmQB-1" value="开始" style="rounded=1;whiteSpace=wrap;html=1;" vertex="1" parent="1">
          <mxGeometry x="135.5" y="110" width="50" height="30" as="geometry" />
        </mxCell>
        <mxCell id="hsD-AiFMK86hT57HMmQB-16" value="" style="edgeStyle=orthogonalEdgeStyle;rounded=0;orthogonalLoop=1;jettySize=auto;html=1;" edge="1" parent="1" source="hsD-AiFMK86hT57HMmQB-10" target="hsD-AiFMK86hT57HMmQB-15">
          <mxGeometry relative="1" as="geometry" />
        </mxCell>
        <mxCell id="hsD-AiFMK86hT57HMmQB-29" style="edgeStyle=orthogonalEdgeStyle;rounded=0;orthogonalLoop=1;jettySize=auto;html=1;exitX=1;exitY=0.5;exitDx=0;exitDy=0;entryX=1;entryY=0.5;entryDx=0;entryDy=0;" edge="1" parent="1" source="hsD-AiFMK86hT57HMmQB-15" target="hsD-AiFMK86hT57HMmQB-27">
          <mxGeometry relative="1" as="geometry">
            <Array as="points">
              <mxPoint x="280" y="270" />
              <mxPoint x="280" y="520" />
            </Array>
          </mxGeometry>
        </mxCell>
        <mxCell id="hsD-AiFMK86hT57HMmQB-30" value="否" style="edgeLabel;html=1;align=center;verticalAlign=middle;resizable=0;points=[];" vertex="1" connectable="0" parent="hsD-AiFMK86hT57HMmQB-29">
          <mxGeometry x="-0.3176" y="-1" relative="1" as="geometry">
            <mxPoint as="offset" />
          </mxGeometry>
        </mxCell>
        <mxCell id="hsD-AiFMK86hT57HMmQB-10" value="发起AB实验变更申请" style="rounded=1;whiteSpace=wrap;html=1;" vertex="1" parent="1">
          <mxGeometry x="102.13" y="170" width="116.75" height="40" as="geometry" />
        </mxCell>
        <mxCell id="hsD-AiFMK86hT57HMmQB-25" value="" style="edgeStyle=orthogonalEdgeStyle;rounded=0;orthogonalLoop=1;jettySize=auto;html=1;" edge="1" parent="1" source="hsD-AiFMK86hT57HMmQB-15" target="hsD-AiFMK86hT57HMmQB-17">
          <mxGeometry relative="1" as="geometry" />
        </mxCell>
        <mxCell id="hsD-AiFMK86hT57HMmQB-15" value="审批是否通过" style="rhombus;whiteSpace=wrap;html=1;" vertex="1" parent="1">
          <mxGeometry x="105.75" y="240" width="109.5" height="60" as="geometry" />
        </mxCell>
        <mxCell id="hsD-AiFMK86hT57HMmQB-26" value="" style="edgeStyle=orthogonalEdgeStyle;rounded=0;orthogonalLoop=1;jettySize=auto;html=1;" edge="1" parent="1" source="hsD-AiFMK86hT57HMmQB-17" target="hsD-AiFMK86hT57HMmQB-18">
          <mxGeometry relative="1" as="geometry" />
        </mxCell>
        <mxCell id="hsD-AiFMK86hT57HMmQB-17" value="主动触发生效" style="rounded=1;whiteSpace=wrap;html=1;" vertex="1" parent="1">
          <mxGeometry x="102.11999999999999" y="361" width="116.75" height="40" as="geometry" />
        </mxCell>
        <mxCell id="hsD-AiFMK86hT57HMmQB-28" value="" style="edgeStyle=orthogonalEdgeStyle;rounded=0;orthogonalLoop=1;jettySize=auto;html=1;" edge="1" parent="1" source="hsD-AiFMK86hT57HMmQB-18" target="hsD-AiFMK86hT57HMmQB-27">
          <mxGeometry relative="1" as="geometry" />
        </mxCell>
        <mxCell id="hsD-AiFMK86hT57HMmQB-18" value="点击下发新配置" style="rounded=1;whiteSpace=wrap;html=1;" vertex="1" parent="1">
          <mxGeometry x="102.13" y="431" width="116.75" height="40" as="geometry" />
        </mxCell>
        <mxCell id="hsD-AiFMK86hT57HMmQB-27" value="" style="ellipse;whiteSpace=wrap;html=1;aspect=fixed;shadow=0;strokeWidth=8;" vertex="1" parent="1">
          <mxGeometry x="150.49" y="510" width="20" height="20" as="geometry" />
        </mxCell>
        <mxCell id="hsD-AiFMK86hT57HMmQB-31" value="是" style="text;html=1;align=center;verticalAlign=middle;resizable=0;points=[];autosize=1;" vertex="1" parent="1">
          <mxGeometry x="125" y="320" width="30" height="20" as="geometry" />
        </mxCell>
      </root>
    </mxGraphModel>
  </diagram>
</mxfile>
